<svg width="1934" height="1001" viewBox="0 0 1934 1001" fill="none" xmlns="http://www.w3.org/2000/svg">
<path d="M1934 1000H49C49 1000 766.136 943.082 1052.18 529.541C1338.23 116 1934 116 1934 116V1000Z" fill="#D95970"/>
<path fill-rule="evenodd" clip-rule="evenodd" d="M163.931 612.374C158.975 606.557 155.621 599.429 156.182 591.441C157.796 568.426 189.834 573.489 196.065 585.105C202.297 596.721 201.557 626.185 193.503 628.261C190.291 629.089 183.448 627.061 176.484 622.864L180.855 653.788H155.045L163.931 612.374Z" fill="#A07C5A"/>
<path fill-rule="evenodd" clip-rule="evenodd" d="M207.499 569.002C206.965 567.124 205.527 565.515 203.59 565.038C203.12 564.922 202.635 564.875 202.151 564.895C201.978 564.902 201.929 564.952 201.848 564.83C201.788 564.74 201.787 564.521 201.762 564.415C201.685 564.087 201.589 563.762 201.47 563.446C201.065 562.368 200.383 561.414 199.562 560.611C198.026 559.107 195.951 558.069 193.794 557.882C192.614 557.779 191.442 557.971 190.327 558.355C189.749 558.553 189.189 558.801 188.643 559.074C188.479 559.157 187.946 559.56 187.781 559.534C187.599 559.505 187.233 559.053 187.085 558.939C185.256 557.535 182.996 556.983 180.717 557C178.145 557.019 175.668 557.148 173.522 558.716C173.068 559.048 172.636 559.412 172.224 559.794C172.007 559.996 171.797 560.205 171.597 560.423C171.476 560.554 171.358 560.688 171.245 560.826C171.052 561.06 171.083 561.137 170.814 560.974C169.782 560.347 168.585 560.053 167.38 560.201C166.664 560.289 165.968 560.504 165.307 560.787C165.082 560.883 164.561 561.267 164.321 561.271C164.083 561.275 163.569 560.919 163.324 560.828C162 560.339 160.573 560.219 159.181 560.445C157.746 560.678 156.335 561.251 155.119 562.042C154.534 562.423 154.023 562.845 153.613 563.411C153.436 563.655 153.276 563.914 153.076 564.14C152.958 564.273 152.726 564.409 152.663 564.577C152.7 564.477 151.093 563.857 150.941 563.817C150.133 563.606 149.31 563.649 148.518 563.909C147.03 564.399 145.75 565.498 144.698 566.624C144.158 567.202 143.685 567.841 143.284 568.523C143.091 568.849 142.915 569.185 142.754 569.527C142.676 569.693 142.625 569.901 142.522 570.051C142.39 570.243 142.301 570.247 142.061 570.331C140.843 570.758 139.732 571.48 138.887 572.456C138.032 573.443 137.477 574.659 137.244 575.94C137.23 576.015 137.222 576.328 137.178 576.369C137.117 576.425 136.872 576.4 136.78 576.411C136.459 576.449 136.14 576.505 135.826 576.579C135.247 576.716 134.682 576.918 134.149 577.182C132.069 578.211 130.582 580.14 129.854 582.311C129.09 584.59 129.103 587.2 130.016 589.435C130.164 589.796 130.339 590.147 130.545 590.479C130.672 590.682 130.713 590.683 130.631 590.896C130.539 591.134 130.372 591.365 130.263 591.597C129.908 592.354 129.66 593.158 129.503 593.979C129.246 595.325 129.119 596.739 129.372 598.096C129.49 598.726 129.695 599.341 130.008 599.902C130.168 600.188 130.355 600.46 130.566 600.711C130.675 600.841 130.791 600.965 130.913 601.085C130.982 601.153 131.074 601.212 131.133 601.288C131.277 601.474 131.307 601.321 131.233 601.594C131.129 601.974 130.893 602.35 130.748 602.721C130.6 603.102 130.465 603.489 130.342 603.88C130.093 604.672 129.882 605.477 129.75 606.297C129.497 607.871 129.541 609.547 130.286 610.991C130.604 611.609 131.061 612.151 131.614 612.573C131.885 612.779 132.179 612.957 132.487 613.103C132.645 613.178 132.847 613.21 132.919 613.363C132.997 613.528 132.882 613.854 132.855 614.038C132.627 615.639 132.512 617.319 132.988 618.888C133.426 620.332 134.391 621.608 135.643 622.452C138.073 624.091 141.349 623.998 143.902 622.687C144.568 622.345 145.19 621.92 145.746 621.42C147.16 623.324 150.071 623.264 152.138 622.721C154.714 622.045 156.78 620.254 157.971 617.901C159.599 619.883 163.016 619.24 164.145 617.09C164.421 616.564 164.585 615.984 164.666 615.397C164.708 615.088 164.681 614.777 164.713 614.471C164.754 614.081 165.014 613.702 165.164 613.324C165.456 612.59 165.637 611.831 165.645 611.039C165.649 610.625 165.596 610.222 165.557 609.812C165.522 609.442 165.624 609.098 165.682 608.734C165.022 608.842 164.217 608.664 163.595 608.473C162.984 608.285 162.412 607.79 161.981 607.338C160.98 606.288 160.369 604.912 159.951 603.542C159.033 600.536 159.409 596.929 162.433 595.28C163.841 594.511 168.061 594.514 169.739 594.893C171.503 595.293 173.502 599.185 173.601 599.551C173.662 599.777 173.631 600.058 173.839 600.208C174.296 600.54 175.05 599.964 175.387 599.68C175.969 599.19 176.384 598.538 176.744 597.876C177.527 596.435 178.158 594.89 178.604 593.313C178.948 592.097 179.168 590.843 179.617 589.658C180.064 588.479 180.769 587.425 181.865 586.757C183.058 586.03 184.425 585.648 185.734 585.191C187.031 584.738 188.306 584.185 189.312 583.225C189.533 583.014 189.748 582.789 189.926 582.541C190.067 582.345 190.205 581.969 190.419 581.844C190.752 581.651 191.238 582.154 191.526 582.337C192.946 583.239 194.131 584.497 195.086 585.871C196.036 587.237 196.816 588.552 197.45 590.078C197.92 591.21 198.213 592.66 199.039 593.587C199.409 594.001 202.151 594.252 203.04 593.89C203.928 593.529 204.924 592.59 205.222 592.001C205.528 591.399 205.6 590.738 205.47 590.078C205.393 589.691 205.237 589.328 205.151 588.947C205.079 588.627 205.013 588.325 204.857 588.032C204.562 587.476 204.058 587.077 203.45 586.91C204.083 586.326 204.607 585.628 204.97 584.848C205.347 584.037 205.667 583.051 205.757 582.161C205.831 581.438 205.717 580.689 205.322 580.068C204.907 579.417 204.171 578.992 203.535 578.585C204.507 577.825 205.339 576.9 206.022 575.876C207.352 573.885 208.175 571.376 207.499 569.002Z" fill="#151446"/>
<path fill-rule="evenodd" clip-rule="evenodd" d="M146.453 743.073L198.162 879.896L234.405 980.742H255.071L205.251 743.073L146.453 743.073Z" fill="#411A21"/>
<path fill-rule="evenodd" clip-rule="evenodd" d="M133.673 743.073C133.111 790.02 133.517 853.226 132.208 856.152C131.334 858.103 104.179 880.332 50.7397 922.838L61.3918 940.951C124.836 900.037 158.18 876.855 161.423 871.404C166.289 863.228 190.732 787.986 203.45 743.073H133.673Z" fill="#55222B"/>
<path fill-rule="evenodd" clip-rule="evenodd" d="M32 935.027L49.9916 921.334L64.5082 938.634C65.6248 951.677 69.943 966.303 77.4627 982.515L74.1674 985.28L47.8992 953.975L40.5604 941.883L38.9127 943.265L32 935.027Z" fill="#B597A5"/>
<path fill-rule="evenodd" clip-rule="evenodd" d="M232.487 1000.1L233.562 977.516H256.146C266.855 985.043 280.835 991.138 298.088 995.798V1000.1H257.222L243.241 997.949V1000.1H232.487Z" fill="#B597A5"/>
<path fill-rule="evenodd" clip-rule="evenodd" d="M238.936 700.377L281.397 694.585C289.891 689.86 297.705 686.662 304.839 684.989C306.847 684.931 310.04 685.661 305.283 689.627C300.525 693.593 295.698 697.981 296.545 700.098C297.393 702.214 301.818 701.427 302.551 704.683C303.039 706.853 295.858 707.206 281.008 705.741L246.555 719.4L238.936 700.377ZM105.551 710.205L129.1 710.293C103.278 768.402 89.8141 798.827 88.7081 801.568C86.2196 807.735 91.4856 817.128 93.7375 822.175C86.403 825.457 87.1845 813.303 77.9323 817.607C69.4874 821.536 63.0633 828.655 53.3063 822.635C52.1068 821.894 50.7922 819.108 53.9683 816.93C61.881 811.504 73.2837 802.008 74.8244 798.883C76.9254 794.62 87.1677 765.061 105.551 710.205Z" fill="#846246"/>
<path fill-rule="evenodd" clip-rule="evenodd" d="M170.055 635.517L188.493 636.745C193.034 677.828 217.768 703.777 273.147 694.992L280.504 747.897C228.745 754.587 183.351 733.864 174.048 677.758C171.64 663.234 169.738 648.118 170.055 635.517Z" fill="#CEC0CC"/>
<path fill-rule="evenodd" clip-rule="evenodd" d="M160.959 630.157L188.895 636.555C188.895 684.604 204.2 715.26 212.051 750.587H136.603C135.54 762.794 134.888 775.341 134.548 788.227H78.0549C90.8565 720.114 117.876 667.418 159.114 630.14H160.944L160.959 630.157Z" fill="#E4CFE0"/>
<path fill-rule="evenodd" clip-rule="evenodd" d="M148.507 682.039C146.563 711.98 147.706 734.829 151.938 750.587H136.603C138.709 726.405 142.424 703.556 148.507 682.039L148.507 682.039Z" fill="black" fill-opacity="0.1"/>
<path d="M1934 1000H1313C1313 1000 1740.51 798.866 1760.27 626C1780.03 453.134 1934 252 1934 252V1000Z" fill="#F25E86"/>
<path fill-rule="evenodd" clip-rule="evenodd" d="M1767.74 666.49C1772.35 661.081 1775.46 654.453 1774.94 647.025C1773.44 625.625 1743.65 630.333 1737.86 641.134C1732.06 651.935 1732.75 679.333 1740.24 681.263C1743.23 682.033 1749.59 680.147 1756.06 676.244L1752 705H1776L1767.74 666.49Z" fill="#915B3C"/>
<path fill-rule="evenodd" clip-rule="evenodd" d="M1769.58 671.308C1772.59 657.906 1781.18 648.771 1779.86 642.782C1778.99 638.789 1776.66 636.305 1772.88 635.332C1770.92 627.416 1764.61 624.048 1753.94 625.23C1737.95 627.004 1728.18 633.648 1732.4 648.268C1736.27 648.268 1740.95 646.866 1747.42 649.268C1749.48 650.03 1750.95 652.393 1751.83 656.358H1754.75C1757.59 651.653 1760.39 649.924 1763.15 651.171C1765.91 652.418 1766.53 655.447 1765.03 660.259L1766.47 671.308H1769.58Z" fill="#191847"/>
<path fill-rule="evenodd" clip-rule="evenodd" d="M1843 830H1728C1719.16 830 1712 837.163 1712 846V938C1712 946.837 1719.16 954 1728 954H1843C1851.84 954 1859 946.837 1859 938V846C1859 837.163 1851.84 830 1843 830ZM1827 858C1829.21 858 1831 859.791 1831 862V922C1831 924.209 1829.21 926 1827 926H1744C1741.79 926 1740 924.209 1740 922V862C1740 859.791 1741.79 858 1744 858H1827Z" fill="#DBB1C5"/>
<path fill-rule="evenodd" clip-rule="evenodd" d="M1612.84 949C1632.56 924.924 1645.9 907.075 1652.86 895.454C1664.79 875.555 1674.55 857.848 1677.63 851.084C1684.97 834.955 1660.72 827.403 1655.23 834.926C1646.92 846.312 1629.18 882.143 1602 942.417L1612.84 949Z" fill="#B28B67"/>
<path fill-rule="evenodd" clip-rule="evenodd" d="M1653.24 942L1689.93 849.637C1697.78 832.8 1659.88 821.732 1654.12 829.568C1641.02 847.357 1609.9 917.534 1606 922.834L1653.24 942Z" fill="#3F5C77"/>
<path fill-rule="evenodd" clip-rule="evenodd" d="M1750.97 923.477C1743.82 913.051 1717.82 877.974 1703.66 863.461C1699.59 859.291 1695.62 855.288 1691.87 851.557C1680.7 840.47 1658.48 859.106 1669.62 869.205C1697.36 894.355 1737.85 928.307 1741.23 931.334C1745.97 935.577 1755.46 930.029 1750.97 923.477Z" fill="#915B3C"/>
<path fill-rule="evenodd" clip-rule="evenodd" d="M1749.3 918.767C1751.76 920.794 1753.36 922.45 1754.1 923.734C1755 925.296 1756.06 927.725 1757.27 931.021C1755.46 932.067 1739.17 941.467 1708.42 959.222C1704.73 955.759 1704.15 953.07 1706.7 951.157C1709.24 949.243 1711.34 947.629 1712.99 946.315L1729.85 923.087C1730.17 922.64 1730.8 922.54 1731.24 922.865C1731.25 922.87 1731.26 922.876 1731.27 922.882L1734.77 925.579C1737.98 925.299 1740.38 924.702 1741.97 923.788C1743.25 923.045 1744.73 921.501 1746.39 919.154L1746.39 919.154C1747.03 918.253 1748.28 918.041 1749.18 918.681C1749.22 918.708 1749.26 918.737 1749.3 918.767Z" fill="#E1D4D9"/>
<path fill-rule="evenodd" clip-rule="evenodd" d="M1621.32 945.402C1622.44 948.388 1623 950.623 1623 952.106C1623 953.909 1622.7 956.54 1622.1 960C1620.01 960 1601.21 960 1565.7 960C1564.23 955.155 1565.08 952.539 1568.24 952.152C1571.39 951.766 1574.02 951.417 1576.1 951.106L1602.32 939.419C1602.82 939.194 1603.42 939.421 1603.64 939.925C1603.64 939.934 1603.65 939.942 1603.65 939.951L1605.34 944.039C1608.26 945.403 1610.64 946.085 1612.46 946.085C1613.95 946.085 1616 945.485 1618.62 944.286L1618.62 944.285C1619.62 943.825 1620.81 944.266 1621.27 945.27C1621.29 945.313 1621.31 945.357 1621.32 945.402Z" fill="#E1D4D9"/>
<path fill-rule="evenodd" clip-rule="evenodd" d="M1703.14 854.25C1733.63 849.282 1754.06 845.884 1764.42 844.058C1793.94 838.852 1802.55 822.965 1797.46 788.302H1743.07C1735.87 790.381 1705.79 803.237 1652.83 826.872C1643.3 831.602 1645.08 845.548 1646.82 850.142C1646.89 850.329 1662.95 877.853 1695.01 932.713L1739.51 904.366L1703.05 857.59C1702.09 855.651 1702.12 854.538 1703.14 854.25Z" fill="#638CB3"/>
<path fill-rule="evenodd" clip-rule="evenodd" d="M1699.22 775.211L1667.32 798.635C1658.67 800.97 1651.44 803.874 1645.64 807.348C1644.27 808.598 1642.61 811.128 1648.29 810.691C1653.98 810.254 1659.98 810.049 1660.77 811.989C1661.55 813.928 1658.11 816.248 1659.7 818.865C1660.75 820.61 1665.75 816.235 1674.68 805.741L1706.27 792.642L1699.22 775.211ZM1821.69 776.02L1800.79 776.102C1813.7 817.756 1820.66 839.857 1821.69 842.406C1824.01 848.14 1819.11 856.874 1817.02 861.567C1823.84 864.619 1823.11 853.317 1831.71 857.319C1839.56 860.973 1845.54 867.592 1854.61 861.994C1855.73 861.306 1856.95 858.715 1854 856.69C1846.64 851.644 1836.03 842.815 1834.6 839.908C1832.65 835.945 1828.35 814.649 1821.69 776.02Z" fill="#915B3C"/>
<path fill-rule="evenodd" clip-rule="evenodd" d="M1762.31 688.332L1753.66 686.849C1721.57 714.564 1708.4 767.809 1669.07 796.015L1678.54 807.748C1746.76 799.3 1763.67 734.355 1762.31 688.332Z" fill="#B41528"/>
<path fill-rule="evenodd" clip-rule="evenodd" d="M1800 797C1765.33 797 1739.82 797 1723.49 797C1719.99 797 1720.65 791.952 1721.16 789.404C1726.99 760.004 1749.76 728.312 1749.76 686.461L1771.83 683C1790.08 712.358 1796.4 748.505 1800 797Z" fill="#ADADAD"/>
<path fill-rule="evenodd" clip-rule="evenodd" d="M1799.39 711.858C1802.59 710.937 1805.13 708.788 1807 705.411C1815.07 690.856 1812.15 682.842 1803.53 680.208C1794.91 677.574 1787.22 683 1773.49 683C1772.74 683 1772.06 683.047 1771.44 683.14L1764.53 683.535C1744.71 750.715 1739.24 795.537 1748.13 818H1808.35C1811.92 826.32 1815.33 833.32 1818.59 839H1835C1836.54 789.067 1824.67 746.686 1799.39 711.858Z" fill="#D61930"/>
<path fill-rule="evenodd" clip-rule="evenodd" d="M1795.23 783.498C1793.34 799.344 1790.26 810.845 1786 818H1808.35C1804.19 808.295 1799.82 796.794 1795.23 783.498Z" fill="black" fill-opacity="0.1"/>
</svg>
