<svg width="1216" height="1000" viewBox="0 0 1216 1000" fill="none" xmlns="http://www.w3.org/2000/svg">
<path d="M461.5 2C209 70 0 575.5 0 1000H1215.5V2H461.5Z" fill="#F0DAE5"/>
<path d="M886.5 0V255C886.5 255 577.986 242.894 364.442 181.076C99.2951 97.6212 114.666 0 114.666 0H886.5Z" fill="#D95970"/>
<path d="M1215.5 0V768C1215.5 768 1041.26 731.539 920.659 545.358C770.913 294.012 779.594 0 779.594 0H1215.5Z" fill="#F25E86"/>
<path d="M520.5 305.766V294.775L595.831 321.982L686.407 260H699.5L597.983 360L520.5 305.766Z" stroke="white" stroke-width="6"/>
<path fill-rule="evenodd" clip-rule="evenodd" d="M271.547 562.95C268.365 556.257 267.012 548.738 269.542 541.397C276.831 520.244 305.57 533.028 308.492 545.472C311.414 557.917 303.325 585.331 295.259 585.254C292.043 585.223 286.143 581.606 280.673 575.927L277.006 605.991L252.829 599.513L271.547 562.95Z" fill="#D4A181"/>
<path fill-rule="evenodd" clip-rule="evenodd" d="M280.32 563.676C275.781 568.627 270.473 571.85 266.33 570.74C258.462 568.632 255.686 556.613 258.717 545.303C258.824 544.905 258.937 544.513 259.058 544.125C249.204 547.607 239.773 557.146 228.76 554.195C213.777 550.18 215.924 518.365 236.858 523.974C251.094 527.789 257.541 531.741 262.753 536.427C264.843 533.391 267.414 531.056 270.161 529.68C270.856 529.222 271.828 528.866 273.027 528.616C273.768 528.436 274.513 528.327 275.257 528.295C279.255 527.933 284.78 528.402 290.724 529.774C291.834 530.03 292.917 530.308 293.966 530.605C295.47 525.061 301.178 521.774 306.731 523.262C312.294 524.753 315.596 530.472 314.105 536.035C312.663 541.415 307.267 544.68 301.882 543.541C298.593 543.664 294.506 543.307 290.101 542.437C290.097 544.13 289.845 545.987 289.301 548.015C288.821 549.806 288.114 551.653 287.234 553.484C286.594 552.117 285.534 551.053 284.26 550.711C280.696 549.757 277.43 552.024 276.596 555.136C275.538 559.086 277.053 562.555 280.32 563.676Z" fill="#173842"/>
<path fill-rule="evenodd" clip-rule="evenodd" d="M221.991 691.707L260.193 823.348L278.161 922.186H296.196L278.193 691.707H221.991Z" fill="#BA8B72"/>
<path fill-rule="evenodd" clip-rule="evenodd" d="M204.822 691.707C207.488 760.094 206.437 797.394 205.84 803.607C205.243 809.82 201.856 851.433 178.777 924.272H197.535C228.1 854.395 238.77 812.783 242.275 803.607C245.781 794.431 256.134 757.131 271.25 691.707H204.822Z" fill="#D4A181"/>
<path fill-rule="evenodd" clip-rule="evenodd" d="M221.171 691.707C231.108 737.005 248.294 809.312 272.731 908.629H299.109C301.057 806.69 292.769 739.597 278.416 691.707H221.171Z" fill="#869EA0"/>
<path fill-rule="evenodd" clip-rule="evenodd" d="M204.689 691.707C207.3 760.094 200.534 827.468 179.577 909.694H207.721C238.342 840.859 260.289 773.817 275.288 691.707H204.689Z" fill="#93ADB0"/>
<path fill-rule="evenodd" clip-rule="evenodd" d="M176.103 937.83L177.138 921.144C183.198 922.916 190.788 922.221 199.908 919.058C209.714 926.004 222.059 930.747 236.943 933.287L236.943 933.287C238.078 933.481 238.842 934.559 238.648 935.694C238.636 935.768 238.619 935.84 238.599 935.912L237.168 940.959H199.908H178.173L176.103 937.83Z" fill="#1A122F"/>
<path fill-rule="evenodd" clip-rule="evenodd" d="M274.135 937.83L275.17 921.144C281.23 922.916 288.82 922.221 297.94 919.058C307.747 926.004 320.092 930.747 334.975 933.287L334.975 933.287C336.111 933.481 336.874 934.559 336.68 935.694C336.668 935.768 336.651 935.84 336.631 935.912L335.2 940.959H297.94H276.205L274.135 937.83Z" fill="#1A122F"/>
<path fill-rule="evenodd" clip-rule="evenodd" d="M296.611 633.079L335.703 619.84C342.872 613.845 349.677 609.408 356.117 606.528C358.005 606.104 361.158 606.201 357.383 610.798C353.608 615.394 349.843 620.398 351.031 622.229C352.219 624.059 356.259 622.507 357.546 625.428C358.403 627.374 351.678 629.025 337.369 630.38L307.284 649.529L296.611 633.079ZM349.539 659.397L366.715 653.556C370.386 645.583 373.754 641.839 376.819 642.326C379.359 641.647 373.408 651.491 378.02 651.359C382.632 651.228 394.917 645.065 396.499 647.035C398.84 649.95 395.058 656.965 391.495 660.159C384.838 666.127 379.919 667.702 368.247 668.842C362.144 669.439 355.282 671.581 347.66 675.268L349.539 659.397Z" fill="#D4A181"/>
<path fill-rule="evenodd" clip-rule="evenodd" d="M280.017 625.668C292.527 627.738 309.642 628.037 329.397 619.892L333.631 636.682C319.232 646.683 300.238 653.637 285.246 650.557C273.431 648.13 269.895 632.698 280.017 625.668Z" fill="#6F3F59"/>
<path fill-rule="evenodd" clip-rule="evenodd" d="M292.43 653.586C305.103 659.229 328.02 659.25 361.18 653.649C366.097 671.025 367.662 683.071 365.876 689.787C336.643 699.049 312.601 701.238 293.628 698.317C292.251 709.638 289.004 720.069 282.699 729.011C269.737 747.395 217.807 719.096 198.601 719.477C193.634 679.679 218.813 668.301 223.09 644.15C227.774 617.702 256.192 580.733 259.317 581.284L287.814 586.309C285.825 606.787 289.813 630.446 292.43 653.586Z" fill="#8E5172"/>
<rect x="465.5" y="406" width="278" height="40" rx="19" stroke="white" stroke-width="4"/>
<rect x="465.5" y="472" width="278" height="40" rx="19" stroke="white" stroke-opacity="0.65" stroke-width="4"/>
<rect x="465.5" y="538" width="278" height="40" rx="19" stroke="white" stroke-opacity="0.31" stroke-width="4"/>
<rect x="465.5" y="604" width="278" height="40" rx="19" stroke="white" stroke-opacity="0.07" stroke-width="4"/>
<circle cx="433" cy="425.5" r="9.5" stroke="white" stroke-width="4"/>
<path d="M442.5 492C442.5 497.604 438.167 502 433 502C427.833 502 423.5 497.604 423.5 492C423.5 486.396 427.833 482 433 482C438.167 482 442.5 486.396 442.5 492Z" stroke="white" stroke-opacity="0.66" stroke-width="4"/>
<path d="M442.5 558C442.5 563.604 438.167 568 433 568C427.833 568 423.5 563.604 423.5 558C423.5 552.396 427.833 548 433 548C438.167 548 442.5 552.396 442.5 558Z" stroke="white" stroke-opacity="0.19" stroke-width="4"/>
<path d="M442.5 624C442.5 629.604 438.167 634 433 634C427.833 634 423.5 629.604 423.5 624C423.5 618.396 427.833 614 433 614C438.167 614 442.5 618.396 442.5 624Z" stroke="white" stroke-opacity="0.19" stroke-width="4"/>
<path fill-rule="evenodd" clip-rule="evenodd" d="M897.238 659.49C901.846 654.081 904.964 647.453 904.443 640.025C902.942 618.625 873.151 623.333 867.357 634.134C861.562 644.935 862.25 672.333 869.74 674.263C872.726 675.033 879.089 673.147 885.565 669.244L881.5 698H905.5L897.238 659.49Z" fill="#A5805E"/>
<path fill-rule="evenodd" clip-rule="evenodd" d="M876.836 622.37C880.116 621.37 884.877 621.031 886.879 621.26C885.74 618.531 885.288 615.49 885.656 612.529C886.015 609.652 887.3 607.202 888.489 604.635C889.037 603.452 889.658 602.275 890.584 601.37C891.528 600.448 892.722 599.84 893.974 599.549C895.255 599.252 896.595 599.277 897.878 599.547C898.446 599.666 898.955 599.925 899.512 600.07C900.082 600.218 900.359 599.861 900.773 599.502C901.77 598.638 903.232 598.211 904.494 598.059C905.91 597.887 907.379 598.101 908.729 598.566C910.043 599.019 911.305 599.755 912.255 600.827C912.678 601.304 913.062 601.847 913.312 602.446C913.414 602.692 913.431 602.838 913.677 602.928C913.904 603.012 914.169 603.014 914.404 603.094C916.669 603.861 918.607 605.612 919.662 607.86C920.277 609.171 920.568 611.48 920.489 614.068C920.409 616.656 918.072 623.408 915.887 625.871C913.936 628.07 911.068 629.52 908.301 630.155C910.138 632.255 911.36 634.878 912.265 637.547C913.247 640.445 913.855 643.457 914.079 646.525C914.292 649.44 914.312 652.524 913.629 655.377C912.989 658.045 911.622 660.234 909.339 661.622C908.294 662.258 907.169 662.736 906.037 663.173C904.922 663.603 903.804 664.022 902.636 664.263C900.425 664.72 897.878 664.642 896.175 662.882C895.561 662.248 894.886 661.451 894.439 660.676C894.278 660.397 894.18 660.215 894.376 659.943C894.61 659.616 894.989 659.366 895.29 659.111C897.007 657.656 898.07 655.713 898.337 653.405C898.609 651.063 897.98 648.039 895.703 647.017C892.892 645.755 889.796 647.204 887.297 648.554C886.235 644.806 884.055 641.431 880.637 639.712C876.855 637.811 872.515 637.588 868.629 635.956C867.616 635.531 866.585 635.048 865.839 634.182C865.527 633.82 865.162 633.35 865.037 632.871C864.874 632.242 865.28 631.715 865.593 631.224C867.255 628.624 873.557 623.37 876.836 622.37Z" fill="#201F37"/>
<path fill-rule="evenodd" clip-rule="evenodd" d="M786.616 799.096C779.436 789.358 761.489 795.804 761.5 803.866C761.528 825.031 780.843 925.512 781.852 931.856C782.86 938.2 793.663 940.275 794.292 932.348C795.293 919.736 797.153 876.013 795.292 855.672C794.749 849.73 794.176 843.987 793.599 838.607C803.75 856.843 819.186 882.619 839.907 915.934L851.423 910.672C842.38 880.876 834.964 859.841 829.177 847.566C819.267 826.55 809.975 808.552 806.064 802.212C800.898 793.838 792.519 794.949 786.616 799.096Z" fill="#A5805E"/>
<path fill-rule="evenodd" clip-rule="evenodd" d="M850.6 894.125L811.073 800.487C801.603 785.255 775.054 803.587 778.283 812.422C785.615 832.479 822.9 897.414 825.085 903.39L850.6 894.125Z" fill="#7C7F93"/>
<path fill-rule="evenodd" clip-rule="evenodd" d="M760.5 811.177C760.5 837.718 772.134 900.106 772.142 905.95L800.324 905C795.398 850.757 793.32 823.452 794.091 823.084C795.827 822.257 865.238 832.691 886.055 833.479C916.074 834.615 928.492 816.199 929.5 781.251H871.352C821.631 787.186 788.952 791.314 773.315 793.634C763.274 795.125 760.5 803.865 760.5 811.177Z" fill="#A1A3B3"/>
<path fill-rule="evenodd" clip-rule="evenodd" d="M852.982 907.736C854.79 910.363 855.873 912.396 856.232 913.835C856.668 915.585 857.013 918.211 857.267 921.713C855.238 922.219 836.995 926.767 802.541 935.358C799.947 931.011 800.135 928.268 803.105 927.129C806.076 925.99 808.537 925.017 810.488 924.209L833.097 906.528C833.532 906.188 834.161 906.264 834.501 906.7C834.507 906.707 834.512 906.714 834.518 906.722L837.142 910.281C840.308 910.897 842.778 910.984 844.552 910.542C845.993 910.182 847.837 909.104 850.086 907.308L850.086 907.308C850.949 906.618 852.207 906.759 852.897 907.622C852.927 907.659 852.955 907.697 852.982 907.736Z" fill="#504343"/>
<path fill-rule="evenodd" clip-rule="evenodd" d="M795.822 917.402C796.941 920.388 797.5 922.623 797.5 924.106C797.5 925.909 797.2 928.54 796.599 932C794.507 932 775.706 932 740.197 932C738.731 927.155 739.577 924.539 742.735 924.152C745.893 923.766 748.516 923.417 750.605 923.106L776.82 911.419C777.324 911.194 777.916 911.421 778.141 911.925C778.144 911.934 778.148 911.942 778.152 911.951L779.837 916.039C782.76 917.403 785.136 918.085 786.963 918.085C788.448 918.085 790.499 917.485 793.116 916.285L793.116 916.285C794.12 915.825 795.307 916.266 795.767 917.27C795.787 917.313 795.805 917.357 795.822 917.402Z" fill="#574A4A"/>
<path d="M747 932H793C794.933 932 796.5 933.567 796.5 935.5C796.5 937.433 794.933 939 793 939H747C745.067 939 743.5 937.433 743.5 935.5C743.5 933.567 745.067 932 747 932Z" fill="#33295C"/>
<path fill-rule="evenodd" clip-rule="evenodd" d="M932.5 787H825.5C819.977 787 815.5 791.477 815.5 797V846H938.5C940.709 846 942.5 844.209 942.5 842V797C942.5 791.477 938.023 787 932.5 787Z" fill="#33295C"/>
<path fill-rule="evenodd" clip-rule="evenodd" d="M825.5 787H823.306C818.409 787 814.232 790.547 813.438 795.38L791.5 929H802.186" fill="#33295C"/>
<path d="M796.5 949C786.559 949 778.5 940.941 778.5 931C778.5 921.059 786.559 913 796.5 913C806.441 913 814.5 921.059 814.5 931C814.5 940.941 806.441 949 796.5 949Z" fill="#18173D"/>
<path fill-rule="evenodd" clip-rule="evenodd" d="M929.5 947C971.474 947 1005.5 912.974 1005.5 871C1005.5 829.026 971.474 795 929.5 795C887.526 795 853.5 829.026 853.5 871C853.5 912.974 887.526 947 929.5 947ZM929.5 933C895.258 933 867.5 905.242 867.5 871C867.5 836.758 895.258 809 929.5 809C963.742 809 991.5 836.758 991.5 871C991.5 905.242 963.742 933 929.5 933Z" fill="#18173D"/>
<path d="M925.5 805H933.5V937H925.5V805Z" fill="#18173D"/>
<path d="M881.417 825.745L884.245 822.917C885.026 822.136 886.293 822.136 887.074 822.917L977.583 913.426C978.364 914.207 978.364 915.474 977.583 916.255L974.755 919.083C973.974 919.864 972.707 919.864 971.926 919.083L881.417 828.574C880.636 827.793 880.636 826.526 881.417 825.745Z" fill="#18173D"/>
<path d="M863.5 873V869C863.5 867.895 864.395 867 865.5 867H993.5C994.605 867 995.5 867.895 995.5 869V873C995.5 874.105 994.605 875 993.5 875H865.5C864.395 875 863.5 874.105 863.5 873Z" fill="#18173D"/>
<path d="M884.245 919.083L881.417 916.255C880.636 915.474 880.636 914.207 881.417 913.426L971.926 822.917C972.707 822.136 973.974 822.136 974.755 822.917L977.583 825.745C978.364 826.526 978.364 827.793 977.583 828.574L887.074 919.083C886.293 919.864 885.026 919.864 884.245 919.083Z" fill="#18173D"/>
<path fill-rule="evenodd" clip-rule="evenodd" d="M828.044 678.341L790.14 666.962C783.069 661.458 776.399 657.433 770.131 654.889C768.308 654.545 765.29 654.745 769.062 659.023C772.833 663.301 776.608 667.971 775.531 669.765C774.454 671.559 770.531 670.206 769.395 673.048C768.638 674.942 775.138 676.299 788.895 677.118L818.366 694.463L828.044 678.341ZM831.393 745.168L799.495 768.592C790.843 770.926 783.615 773.831 777.811 777.305C776.44 778.555 774.783 781.085 780.469 780.648C786.155 780.21 792.156 780.006 792.941 781.946C793.726 783.885 790.285 786.205 791.871 788.822C792.928 790.566 797.923 786.192 806.857 775.698L838.445 762.599L831.393 745.168Z" fill="#A5805E"/>
<path fill-rule="evenodd" clip-rule="evenodd" d="M880.939 682.087C863.569 714.476 838.45 739.305 802.034 765.116L815.823 780.663C856.482 765.553 877.941 756.436 888.479 725.835C891.124 718.154 892.972 693.671 894.558 680.789L880.939 682.087Z" fill="#2E0F23"/>
<path fill-rule="evenodd" clip-rule="evenodd" d="M929.5 790H852.5C869.942 736.805 878.852 700.296 879.23 680.472C879.249 679.461 881.116 677.68 881.941 677.913C887.98 679.619 894.443 678.981 901.328 676C919.583 705.358 925.895 741.505 929.5 790Z" fill="#E6C8C8"/>
<path fill-rule="evenodd" clip-rule="evenodd" d="M894.757 676.047C872.686 676.228 836.876 680.259 795.577 667L791.5 687.373C822.713 707.448 854.319 722.999 882.014 720.791C869.988 772.377 870.542 814.606 897.093 814.606C909.772 814.606 923.457 814.606 938.149 814.606C944.67 770.784 927.532 710.024 911.644 679.377C911.037 678.206 909.746 676 906.703 676C904.052 676 900.075 676 894.773 676C894.768 676.016 894.763 676.032 894.757 676.047Z" fill="#411532"/>
<line x1="453.5" y1="556" x2="758.5" y2="556" stroke="white" stroke-opacity="0.68" stroke-width="4"/>
<line x1="453.5" y1="622" x2="758.5" y2="622" stroke="white" stroke-opacity="0.48" stroke-width="4"/>
</svg>
