<svg width="101" height="51" viewBox="0 0 101 51" fill="none" xmlns="http://www.w3.org/2000/svg">
<rect x="30" width="71" height="51" rx="25.5" fill="#D95B5B"/>
<path d="M17.746 18.392C17.746 19.304 17.556 20.1907 17.176 21.052C16.8213 21.888 16.34 22.724 15.732 23.56C15.124 24.3707 14.44 25.1813 13.68 25.992C12.92 26.7773 12.16 27.55 11.4 28.31C10.9693 28.7407 10.4627 29.2473 9.88 29.83C9.32267 30.4127 8.79067 31.0207 8.284 31.654C7.77733 32.2873 7.34667 32.8953 6.992 33.478C6.66267 34.0607 6.498 34.5673 6.498 34.998H18.62V38H2.66C2.63467 37.848 2.622 37.696 2.622 37.544C2.622 37.392 2.622 37.2527 2.622 37.126C2.622 35.9353 2.812 34.8333 3.192 33.82C3.59733 32.7813 4.11667 31.806 4.75 30.894C5.38333 29.982 6.09267 29.1207 6.878 28.31C7.66333 27.4993 8.436 26.714 9.196 25.954C9.82933 25.346 10.4247 24.7507 10.982 24.168C11.5647 23.56 12.0713 22.9647 12.502 22.382C12.958 21.774 13.3127 21.1533 13.566 20.52C13.8447 19.8867 13.984 19.2153 13.984 18.506C13.984 17.746 13.8573 17.1 13.604 16.568C13.376 16.036 13.0593 15.5927 12.654 15.238C12.2487 14.8833 11.7673 14.63 11.21 14.478C10.678 14.3007 10.108 14.212 9.5 14.212C8.76533 14.212 8.094 14.3133 7.486 14.516C6.878 14.7187 6.33333 14.9593 5.852 15.238C5.37067 15.4913 4.96533 15.77 4.636 16.074C4.30667 16.3527 4.05333 16.568 3.876 16.72L2.128 14.212C2.356 13.9587 2.698 13.6547 3.154 13.3C3.61 12.92 4.15467 12.5653 4.788 12.236C5.42133 11.9067 6.13067 11.628 6.916 11.4C7.70133 11.172 8.55 11.058 9.462 11.058C12.2233 11.058 14.288 11.704 15.656 12.996C17.0493 14.2627 17.746 16.0613 17.746 18.392Z" fill="#D95B5B"/>
<path d="M63.9291 24.814C63.9291 27.094 63.5744 29.0827 62.8651 30.78C62.1557 32.452 61.1551 33.8453 59.8631 34.96C58.5711 36.0493 57.0257 36.8727 55.2271 37.43C53.4284 37.962 51.4524 38.228 49.2991 38.228C48.2351 38.228 47.0571 38.1773 45.7651 38.076C44.4984 38 43.3457 37.8353 42.3071 37.582V12.046C43.3457 11.7927 44.4984 11.628 45.7651 11.552C47.0571 11.4507 48.2351 11.4 49.2991 11.4C51.4524 11.4 53.4284 11.6787 55.2271 12.236C57.0257 12.768 58.5711 13.5913 59.8631 14.706C61.1551 15.7953 62.1557 17.1887 62.8651 18.886C63.5744 20.558 63.9291 22.534 63.9291 24.814ZM49.6031 34.998C53.0991 34.998 55.7084 34.1113 57.4311 32.338C59.1537 30.5393 60.0151 28.0313 60.0151 24.814C60.0151 21.5967 59.1537 19.1013 57.4311 17.328C55.7084 15.5293 53.0991 14.63 49.6031 14.63C48.5644 14.63 47.7537 14.6427 47.1711 14.668C46.6137 14.6933 46.2211 14.7187 45.9931 14.744V34.884C46.2211 34.9093 46.6137 34.9347 47.1711 34.96C47.7537 34.9853 48.5644 34.998 49.6031 34.998ZM86.6109 28.12C86.6109 29.6907 86.3829 31.1093 85.9269 32.376C85.4709 33.6427 84.8249 34.732 83.9889 35.644C83.1782 36.556 82.2029 37.2653 81.0629 37.772C79.9229 38.2533 78.6816 38.494 77.3389 38.494C75.9962 38.494 74.7549 38.2533 73.6149 37.772C72.4749 37.2653 71.4869 36.556 70.6509 35.644C69.8402 34.732 69.2069 33.6427 68.7509 32.376C68.2949 31.1093 68.0669 29.6907 68.0669 28.12C68.0669 26.5747 68.2949 25.1687 68.7509 23.902C69.2069 22.61 69.8402 21.508 70.6509 20.596C71.4869 19.684 72.4749 18.9873 73.6149 18.506C74.7549 17.9993 75.9962 17.746 77.3389 17.746C78.6816 17.746 79.9229 17.9993 81.0629 18.506C82.2029 18.9873 83.1782 19.684 83.9889 20.596C84.8249 21.508 85.4709 22.61 85.9269 23.902C86.3829 25.1687 86.6109 26.5747 86.6109 28.12ZM82.9249 28.12C82.9249 25.8907 82.4182 24.13 81.4049 22.838C80.4169 21.5207 79.0616 20.862 77.3389 20.862C75.6162 20.862 74.2482 21.5207 73.2349 22.838C72.2469 24.13 71.7529 25.8907 71.7529 28.12C71.7529 30.3493 72.2469 32.1227 73.2349 33.44C74.2482 34.732 75.6162 35.378 77.3389 35.378C79.0616 35.378 80.4169 34.732 81.4049 33.44C82.4182 32.1227 82.9249 30.3493 82.9249 28.12Z" fill="white"/>
</svg>
