<svg width="1920" height="1001" viewBox="0 0 1920 1001" fill="none" xmlns="http://www.w3.org/2000/svg">
<path d="M0 0H1920V115V1000H87.5H0V0Z" fill="#F0E7EC"/>
<path d="M1920 1000H49C49 1000 760.81 943.082 1044.73 529.541C1328.66 116 1920 116 1920 116V1000Z" fill="#D95970"/>
<rect x="561" y="238" width="798" height="71" rx="20" fill="white"/>
<rect x="559" y="366" width="798" height="71" rx="20" fill="white" fill-opacity="0.71"/>
<rect x="559" y="500" width="798" height="71" rx="20" fill="white" fill-opacity="0.74"/>
<rect x="561" y="633" width="798" height="71" rx="20" fill="white" fill-opacity="0.74"/>
<rect x="561" y="757" width="798" height="71" rx="20" fill="white" fill-opacity="0.74"/>
<rect x="561" y="881" width="798" height="71" rx="20" fill="white" fill-opacity="0.74"/>
<path d="M1376.5 238C1379.54 238 1382 240.462 1382 243.5L1382 673.5C1382 676.538 1379.54 679 1376.5 679C1373.46 679 1371 676.538 1371 673.5L1371 243.5C1371 240.462 1373.46 238 1376.5 238Z" fill="white"/>
<path d="M589.23 271.66C588.614 273.625 587.991 275.444 587.36 277.116C586.729 278.788 586.099 280.416 585.468 282H583.334C582.557 279.756 581.867 277.387 581.266 274.894C580.679 272.401 580.129 269.687 579.616 266.754H581.86C582.065 267.898 582.278 269.042 582.498 270.186C582.718 271.33 582.945 272.445 583.18 273.53C583.415 274.601 583.649 275.627 583.884 276.61C584.119 277.593 584.361 278.502 584.61 279.338C585.197 277.798 585.82 276.111 586.48 274.278C587.14 272.43 587.756 270.523 588.328 268.558H590.176C590.748 270.523 591.371 272.43 592.046 274.278C592.721 276.111 593.351 277.798 593.938 279.338C594.173 278.517 594.407 277.615 594.642 276.632C594.877 275.649 595.104 274.623 595.324 273.552C595.559 272.467 595.786 271.352 596.006 270.208C596.226 269.049 596.439 267.898 596.644 266.754H598.822C598.294 269.687 597.729 272.401 597.128 274.894C596.541 277.387 595.867 279.756 595.104 282H592.97C592.325 280.416 591.694 278.788 591.078 277.116C590.462 275.444 589.846 273.625 589.23 271.66ZM606.399 280.526C606.883 280.526 607.308 280.519 607.675 280.504C608.056 280.475 608.372 280.431 608.621 280.372V276.962C608.474 276.889 608.232 276.83 607.895 276.786C607.572 276.727 607.176 276.698 606.707 276.698C606.399 276.698 606.069 276.72 605.717 276.764C605.38 276.808 605.064 276.903 604.771 277.05C604.492 277.182 604.258 277.373 604.067 277.622C603.876 277.857 603.781 278.172 603.781 278.568C603.781 279.301 604.016 279.815 604.485 280.108C604.954 280.387 605.592 280.526 606.399 280.526ZM606.223 270.274C607.044 270.274 607.734 270.384 608.291 270.604C608.863 270.809 609.318 271.11 609.655 271.506C610.007 271.887 610.256 272.349 610.403 272.892C610.55 273.42 610.623 274.007 610.623 274.652V281.802C610.447 281.831 610.198 281.875 609.875 281.934C609.567 281.978 609.215 282.022 608.819 282.066C608.423 282.11 607.99 282.147 607.521 282.176C607.066 282.22 606.612 282.242 606.157 282.242C605.512 282.242 604.918 282.176 604.375 282.044C603.832 281.912 603.363 281.707 602.967 281.428C602.571 281.135 602.263 280.753 602.043 280.284C601.823 279.815 601.713 279.25 601.713 278.59C601.713 277.959 601.838 277.417 602.087 276.962C602.351 276.507 602.703 276.141 603.143 275.862C603.583 275.583 604.096 275.378 604.683 275.246C605.27 275.114 605.886 275.048 606.531 275.048C606.736 275.048 606.949 275.063 607.169 275.092C607.389 275.107 607.594 275.136 607.785 275.18C607.99 275.209 608.166 275.239 608.313 275.268C608.46 275.297 608.562 275.319 608.621 275.334V274.762C608.621 274.425 608.584 274.095 608.511 273.772C608.438 273.435 608.306 273.141 608.115 272.892C607.924 272.628 607.66 272.423 607.323 272.276C607 272.115 606.575 272.034 606.047 272.034C605.372 272.034 604.778 272.085 604.265 272.188C603.766 272.276 603.392 272.371 603.143 272.474L602.901 270.78C603.165 270.663 603.605 270.553 604.221 270.45C604.837 270.333 605.504 270.274 606.223 270.274ZM619.433 282.22C618.172 282.191 617.277 281.919 616.749 281.406C616.221 280.893 615.957 280.093 615.957 279.008V265.28L618.003 264.928V278.678C618.003 279.015 618.033 279.294 618.091 279.514C618.15 279.734 618.245 279.91 618.377 280.042C618.509 280.174 618.685 280.277 618.905 280.35C619.125 280.409 619.397 280.46 619.719 280.504L619.433 282.22ZM628.133 275.708C628.573 276.045 629.035 276.463 629.519 276.962C630.018 277.461 630.502 278.003 630.971 278.59C631.455 279.162 631.91 279.749 632.335 280.35C632.76 280.937 633.12 281.487 633.413 282H631.015C630.707 281.487 630.348 280.966 629.937 280.438C629.541 279.895 629.123 279.382 628.683 278.898C628.243 278.399 627.796 277.945 627.341 277.534C626.886 277.123 626.454 276.779 626.043 276.5V282H623.997V265.28L626.043 264.928V275.356C626.395 275.004 626.784 274.615 627.209 274.19C627.634 273.765 628.052 273.332 628.463 272.892C628.874 272.452 629.262 272.034 629.629 271.638C629.996 271.227 630.311 270.868 630.575 270.56H632.973C632.636 270.927 632.269 271.33 631.873 271.77C631.477 272.21 631.066 272.657 630.641 273.112C630.216 273.552 629.783 273.999 629.343 274.454C628.918 274.894 628.514 275.312 628.133 275.708ZM646.457 270.56H650.791V272.276H646.457V277.556C646.457 278.128 646.501 278.605 646.589 278.986C646.677 279.353 646.809 279.646 646.985 279.866C647.161 280.071 647.381 280.218 647.645 280.306C647.909 280.394 648.217 280.438 648.569 280.438C649.185 280.438 649.676 280.372 650.043 280.24C650.424 280.093 650.688 279.991 650.835 279.932L651.231 281.626C651.025 281.729 650.666 281.853 650.153 282C649.639 282.161 649.053 282.242 648.393 282.242C647.615 282.242 646.97 282.147 646.457 281.956C645.958 281.751 645.555 281.45 645.247 281.054C644.939 280.658 644.719 280.174 644.587 279.602C644.469 279.015 644.411 278.341 644.411 277.578V267.37L646.457 267.018V270.56ZM655.374 282V265.28L657.42 264.928V270.78C657.802 270.633 658.205 270.523 658.63 270.45C659.07 270.362 659.503 270.318 659.928 270.318C660.838 270.318 661.593 270.45 662.194 270.714C662.796 270.963 663.272 271.323 663.624 271.792C663.991 272.247 664.248 272.797 664.394 273.442C664.541 274.087 664.614 274.799 664.614 275.576V282H662.568V276.016C662.568 275.312 662.517 274.711 662.414 274.212C662.326 273.713 662.172 273.31 661.952 273.002C661.732 272.694 661.439 272.474 661.072 272.342C660.706 272.195 660.251 272.122 659.708 272.122C659.488 272.122 659.261 272.137 659.026 272.166C658.792 272.195 658.564 272.232 658.344 272.276C658.139 272.305 657.948 272.342 657.772 272.386C657.611 272.43 657.494 272.467 657.42 272.496V282H655.374ZM669.285 276.302C669.285 275.29 669.431 274.41 669.725 273.662C670.018 272.899 670.407 272.269 670.891 271.77C671.375 271.271 671.932 270.897 672.563 270.648C673.193 270.399 673.839 270.274 674.499 270.274C676.039 270.274 677.219 270.758 678.041 271.726C678.862 272.679 679.273 274.139 679.273 276.104C679.273 276.192 679.273 276.309 679.273 276.456C679.273 276.588 679.265 276.713 679.251 276.83H671.419C671.507 278.018 671.851 278.92 672.453 279.536C673.054 280.152 673.993 280.46 675.269 280.46C675.987 280.46 676.589 280.401 677.073 280.284C677.571 280.152 677.945 280.027 678.195 279.91L678.481 281.626C678.231 281.758 677.791 281.897 677.161 282.044C676.545 282.191 675.841 282.264 675.049 282.264C674.051 282.264 673.186 282.117 672.453 281.824C671.734 281.516 671.14 281.098 670.671 280.57C670.201 280.042 669.849 279.419 669.615 278.7C669.395 277.967 669.285 277.167 669.285 276.302ZM677.139 275.18C677.153 274.256 676.919 273.501 676.435 272.914C675.965 272.313 675.313 272.012 674.477 272.012C674.007 272.012 673.589 272.107 673.223 272.298C672.871 272.474 672.57 272.709 672.321 273.002C672.071 273.295 671.873 273.633 671.727 274.014C671.595 274.395 671.507 274.784 671.463 275.18H677.139ZM698.656 272.98C698.406 272.775 698.047 272.577 697.578 272.386C697.108 272.195 696.595 272.1 696.038 272.1C695.451 272.1 694.945 272.21 694.52 272.43C694.109 272.635 693.772 272.929 693.508 273.31C693.244 273.677 693.053 274.117 692.936 274.63C692.818 275.143 692.76 275.693 692.76 276.28C692.76 277.615 693.09 278.649 693.75 279.382C694.41 280.101 695.29 280.46 696.39 280.46C696.947 280.46 697.409 280.438 697.776 280.394C698.157 280.335 698.45 280.277 698.656 280.218V272.98ZM698.656 265.28L700.702 264.928V281.67C700.232 281.802 699.631 281.934 698.898 282.066C698.164 282.198 697.321 282.264 696.368 282.264C695.488 282.264 694.696 282.125 693.992 281.846C693.288 281.567 692.686 281.171 692.188 280.658C691.689 280.145 691.3 279.521 691.022 278.788C690.758 278.04 690.626 277.204 690.626 276.28C690.626 275.4 690.736 274.593 690.956 273.86C691.19 273.127 691.528 272.496 691.968 271.968C692.408 271.44 692.943 271.029 693.574 270.736C694.219 270.443 694.952 270.296 695.774 270.296C696.434 270.296 697.013 270.384 697.512 270.56C698.025 270.736 698.406 270.905 698.656 271.066V265.28ZM716.297 276.28C716.297 277.189 716.165 278.011 715.901 278.744C715.637 279.477 715.263 280.108 714.779 280.636C714.309 281.164 713.745 281.575 713.085 281.868C712.425 282.147 711.706 282.286 710.929 282.286C710.151 282.286 709.433 282.147 708.773 281.868C708.113 281.575 707.541 281.164 707.057 280.636C706.587 280.108 706.221 279.477 705.957 278.744C705.693 278.011 705.561 277.189 705.561 276.28C705.561 275.385 705.693 274.571 705.957 273.838C706.221 273.09 706.587 272.452 707.057 271.924C707.541 271.396 708.113 270.993 708.773 270.714C709.433 270.421 710.151 270.274 710.929 270.274C711.706 270.274 712.425 270.421 713.085 270.714C713.745 270.993 714.309 271.396 714.779 271.924C715.263 272.452 715.637 273.09 715.901 273.838C716.165 274.571 716.297 275.385 716.297 276.28ZM714.163 276.28C714.163 274.989 713.869 273.97 713.283 273.222C712.711 272.459 711.926 272.078 710.929 272.078C709.931 272.078 709.139 272.459 708.553 273.222C707.981 273.97 707.695 274.989 707.695 276.28C707.695 277.571 707.981 278.597 708.553 279.36C709.139 280.108 709.931 280.482 710.929 280.482C711.926 280.482 712.711 280.108 713.283 279.36C713.869 278.597 714.163 277.571 714.163 276.28ZM728.327 280.856C728.151 280.973 727.807 281.127 727.293 281.318C726.795 281.494 726.208 281.582 725.533 281.582C724.844 281.582 724.191 281.472 723.575 281.252C722.974 281.032 722.446 280.695 721.991 280.24C721.537 279.771 721.177 279.191 720.913 278.502C720.649 277.813 720.517 276.991 720.517 276.038C720.517 275.202 720.642 274.439 720.891 273.75C721.141 273.046 721.5 272.445 721.969 271.946C722.453 271.433 723.04 271.037 723.729 270.758C724.419 270.465 725.196 270.318 726.061 270.318C727.015 270.318 727.843 270.391 728.547 270.538C729.266 270.67 729.867 270.795 730.351 270.912V281.12C730.351 282.88 729.897 284.156 728.987 284.948C728.078 285.74 726.699 286.136 724.851 286.136C724.133 286.136 723.451 286.077 722.805 285.96C722.175 285.843 721.625 285.703 721.155 285.542L721.529 283.76C721.94 283.921 722.439 284.061 723.025 284.178C723.627 284.31 724.25 284.376 724.895 284.376C726.113 284.376 726.985 284.134 727.513 283.65C728.056 283.166 728.327 282.396 728.327 281.34V280.856ZM728.305 272.364C728.1 272.305 727.821 272.254 727.469 272.21C727.132 272.151 726.67 272.122 726.083 272.122C724.983 272.122 724.133 272.481 723.531 273.2C722.945 273.919 722.651 274.872 722.651 276.06C722.651 276.72 722.732 277.285 722.893 277.754C723.069 278.223 723.297 278.612 723.575 278.92C723.869 279.228 724.199 279.455 724.565 279.602C724.947 279.749 725.335 279.822 725.731 279.822C726.274 279.822 726.773 279.749 727.227 279.602C727.682 279.441 728.041 279.257 728.305 279.052V272.364Z" fill="black"/>
<path d="M582.434 408.482C584.663 408.482 585.778 407.719 585.778 406.194C585.778 405.725 585.675 405.329 585.47 405.006C585.279 404.669 585.015 404.383 584.678 404.148C584.341 403.899 583.952 403.686 583.512 403.51C583.087 403.334 582.632 403.158 582.148 402.982C581.591 402.791 581.063 402.579 580.564 402.344C580.065 402.095 579.633 401.809 579.266 401.486C578.899 401.149 578.606 400.753 578.386 400.298C578.181 399.843 578.078 399.293 578.078 398.648C578.078 397.313 578.533 396.272 579.442 395.524C580.351 394.776 581.605 394.402 583.204 394.402C584.128 394.402 584.964 394.505 585.712 394.71C586.475 394.901 587.032 395.113 587.384 395.348L586.702 397.086C586.394 396.895 585.932 396.712 585.316 396.536C584.715 396.345 584.011 396.25 583.204 396.25C582.793 396.25 582.412 396.294 582.06 396.382C581.708 396.47 581.4 396.602 581.136 396.778C580.872 396.954 580.659 397.181 580.498 397.46C580.351 397.724 580.278 398.039 580.278 398.406C580.278 398.817 580.359 399.161 580.52 399.44C580.681 399.719 580.909 399.968 581.202 400.188C581.495 400.393 581.833 400.584 582.214 400.76C582.61 400.936 583.043 401.112 583.512 401.288C584.172 401.552 584.773 401.816 585.316 402.08C585.873 402.344 586.35 402.659 586.746 403.026C587.157 403.393 587.472 403.833 587.692 404.346C587.912 404.845 588.022 405.453 588.022 406.172C588.022 407.507 587.531 408.533 586.548 409.252C585.58 409.971 584.209 410.33 582.434 410.33C581.833 410.33 581.275 410.286 580.762 410.198C580.263 410.125 579.816 410.037 579.42 409.934C579.024 409.817 578.679 409.699 578.386 409.582C578.107 409.45 577.887 409.34 577.726 409.252L578.364 407.492C578.701 407.683 579.215 407.895 579.904 408.13C580.593 408.365 581.437 408.482 582.434 408.482ZM594.363 398.56H598.697V400.276H594.363V405.556C594.363 406.128 594.407 406.605 594.495 406.986C594.583 407.353 594.715 407.646 594.891 407.866C595.067 408.071 595.287 408.218 595.551 408.306C595.815 408.394 596.123 408.438 596.475 408.438C597.091 408.438 597.582 408.372 597.949 408.24C598.33 408.093 598.594 407.991 598.741 407.932L599.137 409.626C598.932 409.729 598.572 409.853 598.059 410C597.546 410.161 596.959 410.242 596.299 410.242C595.522 410.242 594.876 410.147 594.363 409.956C593.864 409.751 593.461 409.45 593.153 409.054C592.845 408.658 592.625 408.174 592.493 407.602C592.376 407.015 592.317 406.341 592.317 405.578V395.37L594.363 395.018V398.56ZM612.389 409.67C611.919 409.787 611.296 409.912 610.519 410.044C609.756 410.176 608.869 410.242 607.857 410.242C606.977 410.242 606.236 410.117 605.635 409.868C605.033 409.604 604.549 409.237 604.183 408.768C603.816 408.299 603.552 407.749 603.391 407.118C603.229 406.473 603.149 405.761 603.149 404.984V398.56H605.195V404.544C605.195 405.937 605.415 406.935 605.855 407.536C606.295 408.137 607.035 408.438 608.077 408.438C608.297 408.438 608.524 408.431 608.759 408.416C608.993 408.401 609.213 408.387 609.419 408.372C609.624 408.343 609.807 408.321 609.969 408.306C610.145 408.277 610.269 408.247 610.343 408.218V398.56H612.389V409.67ZM625.285 400.98C625.036 400.775 624.677 400.577 624.207 400.386C623.738 400.195 623.225 400.1 622.667 400.1C622.081 400.1 621.575 400.21 621.149 400.43C620.739 400.635 620.401 400.929 620.137 401.31C619.873 401.677 619.683 402.117 619.565 402.63C619.448 403.143 619.389 403.693 619.389 404.28C619.389 405.615 619.719 406.649 620.379 407.382C621.039 408.101 621.919 408.46 623.019 408.46C623.577 408.46 624.039 408.438 624.405 408.394C624.787 408.335 625.08 408.277 625.285 408.218V400.98ZM625.285 393.28L627.331 392.928V409.67C626.862 409.802 626.261 409.934 625.527 410.066C624.794 410.198 623.951 410.264 622.997 410.264C622.117 410.264 621.325 410.125 620.621 409.846C619.917 409.567 619.316 409.171 618.817 408.658C618.319 408.145 617.93 407.521 617.651 406.788C617.387 406.04 617.255 405.204 617.255 404.28C617.255 403.4 617.365 402.593 617.585 401.86C617.82 401.127 618.157 400.496 618.597 399.968C619.037 399.44 619.573 399.029 620.203 398.736C620.849 398.443 621.582 398.296 622.403 398.296C623.063 398.296 623.643 398.384 624.141 398.56C624.655 398.736 625.036 398.905 625.285 399.066V393.28ZM634.874 410H632.828V398.56H634.874V410ZM633.84 396.492C633.474 396.492 633.158 396.375 632.894 396.14C632.645 395.891 632.52 395.561 632.52 395.15C632.52 394.739 632.645 394.417 632.894 394.182C633.158 393.933 633.474 393.808 633.84 393.808C634.207 393.808 634.515 393.933 634.764 394.182C635.028 394.417 635.16 394.739 635.16 395.15C635.16 395.561 635.028 395.891 634.764 396.14C634.515 396.375 634.207 396.492 633.84 396.492ZM639.735 404.302C639.735 403.29 639.882 402.41 640.175 401.662C640.468 400.899 640.857 400.269 641.341 399.77C641.825 399.271 642.382 398.897 643.013 398.648C643.644 398.399 644.289 398.274 644.949 398.274C646.489 398.274 647.67 398.758 648.491 399.726C649.312 400.679 649.723 402.139 649.723 404.104C649.723 404.192 649.723 404.309 649.723 404.456C649.723 404.588 649.716 404.713 649.701 404.83H641.869C641.957 406.018 642.302 406.92 642.903 407.536C643.504 408.152 644.443 408.46 645.719 408.46C646.438 408.46 647.039 408.401 647.523 408.284C648.022 408.152 648.396 408.027 648.645 407.91L648.931 409.626C648.682 409.758 648.242 409.897 647.611 410.044C646.995 410.191 646.291 410.264 645.499 410.264C644.502 410.264 643.636 410.117 642.903 409.824C642.184 409.516 641.59 409.098 641.121 408.57C640.652 408.042 640.3 407.419 640.065 406.7C639.845 405.967 639.735 405.167 639.735 404.302ZM647.589 403.18C647.604 402.256 647.369 401.501 646.885 400.914C646.416 400.313 645.763 400.012 644.927 400.012C644.458 400.012 644.04 400.107 643.673 400.298C643.321 400.474 643.02 400.709 642.771 401.002C642.522 401.295 642.324 401.633 642.177 402.014C642.045 402.395 641.957 402.784 641.913 403.18H647.589ZM657.304 408.526C658.14 408.526 658.756 408.416 659.152 408.196C659.563 407.976 659.768 407.624 659.768 407.14C659.768 406.641 659.57 406.245 659.174 405.952C658.778 405.659 658.125 405.329 657.216 404.962C656.776 404.786 656.351 404.61 655.94 404.434C655.544 404.243 655.199 404.023 654.906 403.774C654.613 403.525 654.378 403.224 654.202 402.872C654.026 402.52 653.938 402.087 653.938 401.574C653.938 400.562 654.312 399.763 655.06 399.176C655.808 398.575 656.827 398.274 658.118 398.274C658.441 398.274 658.763 398.296 659.086 398.34C659.409 398.369 659.709 398.413 659.988 398.472C660.267 398.516 660.509 398.567 660.714 398.626C660.934 398.685 661.103 398.736 661.22 398.78L660.846 400.54C660.626 400.423 660.281 400.305 659.812 400.188C659.343 400.056 658.778 399.99 658.118 399.99C657.546 399.99 657.047 400.107 656.622 400.342C656.197 400.562 655.984 400.914 655.984 401.398C655.984 401.647 656.028 401.867 656.116 402.058C656.219 402.249 656.365 402.425 656.556 402.586C656.761 402.733 657.011 402.872 657.304 403.004C657.597 403.136 657.949 403.275 658.36 403.422C658.903 403.627 659.387 403.833 659.812 404.038C660.237 404.229 660.597 404.456 660.89 404.72C661.198 404.984 661.433 405.307 661.594 405.688C661.755 406.055 661.836 406.509 661.836 407.052C661.836 408.108 661.44 408.907 660.648 409.45C659.871 409.993 658.756 410.264 657.304 410.264C656.292 410.264 655.5 410.176 654.928 410C654.356 409.839 653.967 409.714 653.762 409.626L654.136 407.866C654.371 407.954 654.745 408.086 655.258 408.262C655.771 408.438 656.453 408.526 657.304 408.526Z" fill="black" fill-opacity="0.48"/>
<path d="M577 404.5H662.694V406.238H577V404.5Z" fill="black" fill-opacity="0.48"/>
<path d="M589.078 528.754V530.602H584.282V544H582.148V530.602H577.352V528.754H589.078ZM602.074 538.28C602.074 539.189 601.942 540.011 601.678 540.744C601.414 541.477 601.04 542.108 600.556 542.636C600.087 543.164 599.522 543.575 598.862 543.868C598.202 544.147 597.484 544.286 596.706 544.286C595.929 544.286 595.21 544.147 594.55 543.868C593.89 543.575 593.318 543.164 592.834 542.636C592.365 542.108 591.998 541.477 591.734 540.744C591.47 540.011 591.338 539.189 591.338 538.28C591.338 537.385 591.47 536.571 591.734 535.838C591.998 535.09 592.365 534.452 592.834 533.924C593.318 533.396 593.89 532.993 594.55 532.714C595.21 532.421 595.929 532.274 596.706 532.274C597.484 532.274 598.202 532.421 598.862 532.714C599.522 532.993 600.087 533.396 600.556 533.924C601.04 534.452 601.414 535.09 601.678 535.838C601.942 536.571 602.074 537.385 602.074 538.28ZM599.94 538.28C599.94 536.989 599.647 535.97 599.06 535.222C598.488 534.459 597.704 534.078 596.706 534.078C595.709 534.078 594.917 534.459 594.33 535.222C593.758 535.97 593.472 536.989 593.472 538.28C593.472 539.571 593.758 540.597 594.33 541.36C594.917 542.108 595.709 542.482 596.706 542.482C597.704 542.482 598.488 542.108 599.06 541.36C599.647 540.597 599.94 539.571 599.94 538.28ZM614.325 534.98C614.076 534.775 613.716 534.577 613.247 534.386C612.778 534.195 612.264 534.1 611.707 534.1C611.12 534.1 610.614 534.21 610.189 534.43C609.778 534.635 609.441 534.929 609.177 535.31C608.913 535.677 608.722 536.117 608.605 536.63C608.488 537.143 608.429 537.693 608.429 538.28C608.429 539.615 608.759 540.649 609.419 541.382C610.079 542.101 610.959 542.46 612.059 542.46C612.616 542.46 613.078 542.438 613.445 542.394C613.826 542.335 614.12 542.277 614.325 542.218V534.98ZM614.325 527.28L616.371 526.928V543.67C615.902 543.802 615.3 543.934 614.567 544.066C613.834 544.198 612.99 544.264 612.037 544.264C611.157 544.264 610.365 544.125 609.661 543.846C608.957 543.567 608.356 543.171 607.857 542.658C607.358 542.145 606.97 541.521 606.691 540.788C606.427 540.04 606.295 539.204 606.295 538.28C606.295 537.4 606.405 536.593 606.625 535.86C606.86 535.127 607.197 534.496 607.637 533.968C608.077 533.44 608.612 533.029 609.243 532.736C609.888 532.443 610.622 532.296 611.443 532.296C612.103 532.296 612.682 532.384 613.181 532.56C613.694 532.736 614.076 532.905 614.325 533.066V527.28ZM631.966 538.28C631.966 539.189 631.834 540.011 631.57 540.744C631.306 541.477 630.932 542.108 630.448 542.636C629.979 543.164 629.414 543.575 628.754 543.868C628.094 544.147 627.375 544.286 626.598 544.286C625.821 544.286 625.102 544.147 624.442 543.868C623.782 543.575 623.21 543.164 622.726 542.636C622.257 542.108 621.89 541.477 621.626 540.744C621.362 540.011 621.23 539.189 621.23 538.28C621.23 537.385 621.362 536.571 621.626 535.838C621.89 535.09 622.257 534.452 622.726 533.924C623.21 533.396 623.782 532.993 624.442 532.714C625.102 532.421 625.821 532.274 626.598 532.274C627.375 532.274 628.094 532.421 628.754 532.714C629.414 532.993 629.979 533.396 630.448 533.924C630.932 534.452 631.306 535.09 631.57 535.838C631.834 536.571 631.966 537.385 631.966 538.28ZM629.832 538.28C629.832 536.989 629.539 535.97 628.952 535.222C628.38 534.459 627.595 534.078 626.598 534.078C625.601 534.078 624.809 534.459 624.222 535.222C623.65 535.97 623.364 536.989 623.364 538.28C623.364 539.571 623.65 540.597 624.222 541.36C624.809 542.108 625.601 542.482 626.598 542.482C627.595 542.482 628.38 542.108 628.952 541.36C629.539 540.597 629.832 539.571 629.832 538.28ZM654.214 544C653.965 543.34 653.73 542.695 653.51 542.064C653.29 541.419 653.063 540.766 652.828 540.106H645.92L644.534 544H642.312C642.899 542.387 643.449 540.898 643.962 539.534C644.476 538.155 644.974 536.85 645.458 535.618C645.957 534.386 646.448 533.213 646.932 532.098C647.416 530.969 647.922 529.854 648.45 528.754H650.408C650.936 529.854 651.442 530.969 651.926 532.098C652.41 533.213 652.894 534.386 653.378 535.618C653.877 536.85 654.383 538.155 654.896 539.534C655.41 540.898 655.96 542.387 656.546 544H654.214ZM652.212 538.346C651.743 537.07 651.274 535.838 650.804 534.65C650.35 533.447 649.873 532.296 649.374 531.196C648.861 532.296 648.37 533.447 647.9 534.65C647.446 535.838 646.991 537.07 646.536 538.346H652.212ZM668.406 538.302C668.406 536.967 668.076 535.941 667.416 535.222C666.756 534.503 665.876 534.144 664.776 534.144C664.16 534.144 663.676 534.166 663.324 534.21C662.987 534.254 662.716 534.305 662.51 534.364V541.58C662.76 541.785 663.119 541.983 663.588 542.174C664.058 542.365 664.571 542.46 665.128 542.46C665.715 542.46 666.214 542.357 666.624 542.152C667.05 541.932 667.394 541.639 667.658 541.272C667.922 540.891 668.113 540.451 668.23 539.952C668.348 539.439 668.406 538.889 668.406 538.302ZM670.54 538.302C670.54 539.167 670.423 539.967 670.188 540.7C669.968 541.433 669.638 542.064 669.198 542.592C668.758 543.12 668.216 543.531 667.57 543.824C666.94 544.117 666.214 544.264 665.392 544.264C664.732 544.264 664.146 544.176 663.632 544C663.134 543.824 662.76 543.655 662.51 543.494V548.07H660.464V532.912C660.948 532.795 661.55 532.67 662.268 532.538C663.002 532.391 663.845 532.318 664.798 532.318C665.678 532.318 666.47 532.457 667.174 532.736C667.878 533.015 668.48 533.411 668.978 533.924C669.477 534.437 669.858 535.068 670.122 535.816C670.401 536.549 670.54 537.378 670.54 538.302ZM683.341 538.302C683.341 536.967 683.011 535.941 682.351 535.222C681.691 534.503 680.811 534.144 679.711 534.144C679.095 534.144 678.611 534.166 678.259 534.21C677.922 534.254 677.651 534.305 677.445 534.364V541.58C677.695 541.785 678.054 541.983 678.523 542.174C678.993 542.365 679.506 542.46 680.063 542.46C680.65 542.46 681.149 542.357 681.559 542.152C681.985 541.932 682.329 541.639 682.593 541.272C682.857 540.891 683.048 540.451 683.165 539.952C683.283 539.439 683.341 538.889 683.341 538.302ZM685.475 538.302C685.475 539.167 685.358 539.967 685.123 540.7C684.903 541.433 684.573 542.064 684.133 542.592C683.693 543.12 683.151 543.531 682.505 543.824C681.875 544.117 681.149 544.264 680.327 544.264C679.667 544.264 679.081 544.176 678.567 544C678.069 543.824 677.695 543.655 677.445 543.494V548.07H675.399V532.912C675.883 532.795 676.485 532.67 677.203 532.538C677.937 532.391 678.78 532.318 679.733 532.318C680.613 532.318 681.405 532.457 682.109 532.736C682.813 533.015 683.415 533.411 683.913 533.924C684.412 534.437 684.793 535.068 685.057 535.816C685.336 536.549 685.475 537.378 685.475 538.302Z" fill="black" fill-opacity="0.48"/>
<path d="M577 538.5H686.597V540.238H577V538.5Z" fill="black" fill-opacity="0.48"/>
<rect x="1607" y="54" width="170" height="62" rx="20" fill="#D95B5B"/>
<path d="M1652.91 84.3193V76.3896H1650.86V84.3193H1643.44V86.353H1650.86V94.5049H1652.91V86.353H1660.5V84.3193H1652.91ZM1671.82 97C1671.63 97 1671.47 96.93 1671.33 96.79C1671.19 96.65 1671.12 96.4867 1671.12 96.3C1671.12 96.1133 1671.13 95.985 1671.15 95.915L1679.83 73.27C1680.02 72.7567 1680.39 72.5 1680.95 72.5H1683.33C1683.89 72.5 1684.26 72.7567 1684.45 73.27L1693.1 95.915L1693.17 96.3C1693.17 96.4867 1693.1 96.65 1692.96 96.79C1692.82 96.93 1692.65 97 1692.47 97H1690.68C1690.42 97 1690.23 96.9417 1690.09 96.825C1689.95 96.685 1689.85 96.545 1689.81 96.405L1687.88 91.435H1676.4L1674.48 96.405C1674.43 96.545 1674.32 96.685 1674.16 96.825C1674.02 96.9417 1673.83 97 1673.6 97H1671.82ZM1686.87 88.425L1682.14 76L1677.42 88.425H1686.87ZM1706.05 97.35C1703.62 97.35 1701.79 96.5567 1700.55 94.97C1699.32 93.3833 1698.66 91.3767 1698.59 88.95L1698.56 87.9L1698.59 86.85C1698.66 84.4467 1699.32 82.4517 1700.55 80.865C1701.79 79.255 1703.62 78.45 1706.05 78.45C1708.45 78.45 1710.34 79.3017 1711.72 81.005V72.955C1711.72 72.7217 1711.79 72.535 1711.93 72.395C1712.09 72.2317 1712.29 72.15 1712.52 72.15H1714.2C1714.44 72.15 1714.62 72.2317 1714.76 72.395C1714.93 72.535 1715.01 72.7217 1715.01 72.955V96.195C1715.01 96.4283 1714.93 96.6267 1714.76 96.79C1714.62 96.93 1714.44 97 1714.2 97H1712.63C1712.39 97 1712.2 96.93 1712.03 96.79C1711.89 96.6267 1711.82 96.4283 1711.82 96.195V94.725C1710.47 96.475 1708.54 97.35 1706.05 97.35ZM1706.78 94.515C1708.39 94.515 1709.59 93.99 1710.39 92.94C1711.2 91.8667 1711.65 90.595 1711.72 89.125C1711.74 88.8683 1711.75 88.425 1711.75 87.795C1711.75 87.1417 1711.74 86.6867 1711.72 86.43C1711.67 85.0533 1711.23 83.8517 1710.39 82.825C1709.55 81.7983 1708.35 81.285 1706.78 81.285C1705.13 81.285 1703.91 81.7983 1703.14 82.825C1702.4 83.8517 1701.99 85.205 1701.92 86.885L1701.88 87.9C1701.88 92.31 1703.52 94.515 1706.78 94.515ZM1730.01 97.35C1727.59 97.35 1725.76 96.5567 1724.52 94.97C1723.28 93.3833 1722.63 91.3767 1722.56 88.95L1722.52 87.9L1722.56 86.85C1722.63 84.4467 1723.28 82.4517 1724.52 80.865C1725.76 79.255 1727.59 78.45 1730.01 78.45C1732.42 78.45 1734.31 79.3017 1735.68 81.005V72.955C1735.68 72.7217 1735.75 72.535 1735.89 72.395C1736.06 72.2317 1736.26 72.15 1736.49 72.15H1738.17C1738.4 72.15 1738.59 72.2317 1738.73 72.395C1738.89 72.535 1738.97 72.7217 1738.97 72.955V96.195C1738.97 96.4283 1738.89 96.6267 1738.73 96.79C1738.59 96.93 1738.4 97 1738.17 97H1736.59C1736.36 97 1736.16 96.93 1736 96.79C1735.86 96.6267 1735.79 96.4283 1735.79 96.195V94.725C1734.44 96.475 1732.51 97.35 1730.01 97.35ZM1730.75 94.515C1732.36 94.515 1733.56 93.99 1734.35 92.94C1735.17 91.8667 1735.61 90.595 1735.68 89.125C1735.71 88.8683 1735.72 88.425 1735.72 87.795C1735.72 87.1417 1735.71 86.6867 1735.68 86.43C1735.64 85.0533 1735.19 83.8517 1734.35 82.825C1733.51 81.7983 1732.31 81.285 1730.75 81.285C1729.09 81.285 1727.88 81.7983 1727.11 82.825C1726.36 83.8517 1725.95 85.205 1725.88 86.885L1725.85 87.9C1725.85 92.31 1727.48 94.515 1730.75 94.515Z" fill="white"/>
<path d="M838 115.784V100.946L940.265 137.676L1063.23 54H1081L943.186 189L838 115.784Z" stroke="#D95B5B" stroke-width="6"/>
<path fill-rule="evenodd" clip-rule="evenodd" d="M163.931 612.374C158.975 606.557 155.621 599.429 156.182 591.441C157.796 568.426 189.834 573.489 196.065 585.105C202.297 596.721 201.557 626.185 193.503 628.261C190.291 629.089 183.448 627.061 176.484 622.864L180.855 653.788H155.045L163.931 612.374Z" fill="#A07C5A"/>
<path fill-rule="evenodd" clip-rule="evenodd" d="M207.499 569.002C206.965 567.124 205.527 565.515 203.59 565.038C203.12 564.922 202.635 564.875 202.151 564.895C201.978 564.902 201.929 564.952 201.848 564.83C201.788 564.74 201.787 564.521 201.762 564.415C201.685 564.087 201.589 563.762 201.47 563.446C201.065 562.368 200.383 561.414 199.562 560.611C198.026 559.107 195.951 558.069 193.794 557.882C192.614 557.779 191.442 557.971 190.327 558.355C189.749 558.553 189.189 558.801 188.643 559.074C188.479 559.157 187.946 559.56 187.781 559.534C187.599 559.505 187.233 559.053 187.085 558.939C185.256 557.535 182.996 556.983 180.717 557C178.145 557.019 175.668 557.148 173.522 558.716C173.068 559.048 172.636 559.412 172.224 559.794C172.007 559.996 171.797 560.205 171.597 560.423C171.476 560.554 171.358 560.688 171.245 560.826C171.052 561.06 171.083 561.137 170.814 560.974C169.782 560.347 168.585 560.053 167.38 560.201C166.664 560.289 165.968 560.504 165.307 560.787C165.082 560.883 164.561 561.267 164.321 561.271C164.083 561.275 163.569 560.919 163.324 560.828C162 560.339 160.573 560.219 159.181 560.445C157.746 560.678 156.335 561.251 155.119 562.042C154.534 562.423 154.023 562.845 153.613 563.411C153.436 563.655 153.276 563.914 153.076 564.14C152.958 564.273 152.726 564.409 152.663 564.577C152.7 564.477 151.093 563.857 150.941 563.817C150.133 563.606 149.31 563.649 148.518 563.909C147.03 564.399 145.75 565.498 144.698 566.624C144.158 567.202 143.685 567.841 143.284 568.523C143.091 568.849 142.915 569.185 142.754 569.527C142.676 569.693 142.625 569.901 142.522 570.051C142.39 570.243 142.301 570.247 142.061 570.331C140.843 570.758 139.732 571.48 138.887 572.456C138.032 573.443 137.477 574.659 137.244 575.94C137.23 576.015 137.222 576.328 137.178 576.369C137.117 576.425 136.872 576.4 136.78 576.411C136.459 576.449 136.14 576.505 135.826 576.579C135.247 576.716 134.682 576.918 134.149 577.182C132.069 578.211 130.582 580.14 129.854 582.311C129.09 584.59 129.103 587.2 130.016 589.435C130.164 589.796 130.339 590.147 130.545 590.479C130.672 590.682 130.713 590.683 130.631 590.896C130.539 591.134 130.372 591.365 130.263 591.597C129.908 592.354 129.66 593.158 129.503 593.979C129.246 595.325 129.119 596.739 129.372 598.096C129.49 598.726 129.695 599.341 130.008 599.902C130.168 600.188 130.355 600.46 130.566 600.711C130.675 600.841 130.791 600.965 130.913 601.085C130.982 601.153 131.074 601.212 131.133 601.288C131.277 601.474 131.307 601.321 131.233 601.594C131.129 601.974 130.893 602.35 130.748 602.721C130.6 603.102 130.465 603.489 130.342 603.88C130.093 604.672 129.882 605.477 129.75 606.297C129.497 607.871 129.541 609.547 130.286 610.991C130.604 611.609 131.061 612.151 131.614 612.573C131.885 612.779 132.179 612.957 132.487 613.103C132.645 613.178 132.847 613.21 132.919 613.363C132.997 613.528 132.882 613.854 132.855 614.038C132.627 615.639 132.512 617.319 132.988 618.888C133.426 620.332 134.391 621.608 135.643 622.452C138.073 624.091 141.349 623.998 143.902 622.687C144.568 622.345 145.19 621.92 145.746 621.42C147.16 623.324 150.071 623.264 152.138 622.721C154.714 622.045 156.78 620.254 157.971 617.901C159.599 619.883 163.016 619.24 164.145 617.09C164.421 616.564 164.585 615.984 164.666 615.397C164.708 615.088 164.681 614.777 164.713 614.471C164.754 614.081 165.014 613.702 165.164 613.324C165.456 612.59 165.637 611.831 165.645 611.039C165.649 610.625 165.596 610.222 165.557 609.812C165.522 609.442 165.624 609.098 165.682 608.734C165.022 608.842 164.217 608.664 163.595 608.473C162.984 608.285 162.412 607.79 161.981 607.338C160.98 606.288 160.369 604.912 159.951 603.542C159.033 600.536 159.409 596.929 162.433 595.28C163.841 594.511 168.061 594.514 169.739 594.893C171.503 595.293 173.502 599.185 173.601 599.551C173.662 599.777 173.631 600.058 173.839 600.208C174.296 600.54 175.05 599.964 175.387 599.68C175.969 599.19 176.384 598.538 176.744 597.876C177.527 596.435 178.158 594.89 178.604 593.313C178.948 592.097 179.168 590.843 179.617 589.658C180.064 588.479 180.769 587.425 181.865 586.757C183.058 586.03 184.425 585.648 185.734 585.191C187.031 584.738 188.306 584.185 189.312 583.225C189.533 583.014 189.748 582.789 189.926 582.541C190.067 582.345 190.205 581.969 190.419 581.844C190.752 581.651 191.238 582.154 191.526 582.337C192.946 583.239 194.131 584.497 195.086 585.871C196.036 587.237 196.816 588.552 197.45 590.078C197.92 591.21 198.213 592.66 199.039 593.587C199.409 594.001 202.151 594.252 203.04 593.89C203.928 593.529 204.924 592.59 205.222 592.001C205.528 591.399 205.6 590.738 205.47 590.078C205.393 589.691 205.237 589.328 205.151 588.947C205.079 588.627 205.013 588.325 204.857 588.032C204.562 587.476 204.058 587.077 203.45 586.91C204.083 586.326 204.607 585.628 204.97 584.848C205.347 584.037 205.667 583.051 205.757 582.161C205.831 581.438 205.717 580.689 205.322 580.068C204.907 579.417 204.171 578.992 203.535 578.585C204.507 577.825 205.339 576.9 206.022 575.876C207.352 573.885 208.175 571.376 207.499 569.002Z" fill="#151446"/>
<path fill-rule="evenodd" clip-rule="evenodd" d="M146.453 743.073L198.162 879.896L234.405 980.742H255.071L205.251 743.073L146.453 743.073Z" fill="#411A21"/>
<path fill-rule="evenodd" clip-rule="evenodd" d="M133.673 743.073C133.111 790.02 133.517 853.226 132.208 856.152C131.334 858.103 104.179 880.332 50.7397 922.838L61.3918 940.951C124.836 900.037 158.18 876.855 161.423 871.404C166.289 863.228 190.732 787.986 203.45 743.073H133.673Z" fill="#55222B"/>
<path fill-rule="evenodd" clip-rule="evenodd" d="M32 935.027L49.9916 921.334L64.5082 938.634C65.6248 951.677 69.943 966.303 77.4627 982.515L74.1674 985.28L47.8992 953.975L40.5604 941.883L38.9127 943.265L32 935.027Z" fill="#B597A5"/>
<path fill-rule="evenodd" clip-rule="evenodd" d="M232.487 1000.1L233.562 977.515H256.146C266.855 985.043 280.835 991.138 298.088 995.798V1000.1H257.222L243.241 997.949V1000.1H232.487Z" fill="#B597A5"/>
<path fill-rule="evenodd" clip-rule="evenodd" d="M238.936 700.376L281.397 694.585C289.891 689.86 297.705 686.662 304.839 684.989C306.847 684.931 310.04 685.661 305.283 689.627C300.525 693.593 295.698 697.981 296.545 700.098C297.393 702.214 301.818 701.427 302.551 704.682C303.039 706.853 295.858 707.206 281.008 705.741L246.555 719.4L238.936 700.376ZM105.551 710.205L129.1 710.293C103.278 768.402 89.8141 798.827 88.7081 801.568C86.2196 807.735 91.4856 817.128 93.7375 822.175C86.403 825.457 87.1845 813.303 77.9323 817.607C69.4874 821.536 63.0633 828.655 53.3063 822.634C52.1068 821.894 50.7922 819.107 53.9683 816.93C61.881 811.504 73.2837 802.008 74.8244 798.883C76.9254 794.62 87.1677 765.061 105.551 710.205Z" fill="#846246"/>
<path fill-rule="evenodd" clip-rule="evenodd" d="M170.055 635.517L188.493 636.745C193.034 677.828 217.768 703.777 273.147 694.992L280.504 747.897C228.745 754.586 183.351 733.864 174.048 677.758C171.64 663.234 169.738 648.118 170.055 635.517Z" fill="#CEC0CC"/>
<path fill-rule="evenodd" clip-rule="evenodd" d="M160.959 630.157L188.895 636.555C188.895 684.604 204.2 715.26 212.051 750.587H136.603C135.54 762.794 134.888 775.341 134.548 788.227H78.0549C90.8565 720.114 117.876 667.418 159.114 630.14H160.944L160.959 630.157Z" fill="#E4CFE0"/>
<path fill-rule="evenodd" clip-rule="evenodd" d="M148.507 682.039C146.563 711.98 147.706 734.829 151.938 750.587H136.603C138.709 726.405 142.424 703.556 148.507 682.039L148.507 682.039Z" fill="black" fill-opacity="0.1"/>
<path d="M1918 1000H1313C1313 1000 1729.5 799 1748.75 626.25C1768 453.5 1918 252.5 1918 252.5V1000Z" fill="#F25E86"/>
<path fill-rule="evenodd" clip-rule="evenodd" d="M1767.74 666.49C1772.35 661.081 1775.46 654.453 1774.94 647.025C1773.44 625.625 1743.65 630.333 1737.86 641.134C1732.06 651.935 1732.75 679.333 1740.24 681.263C1743.23 682.033 1749.59 680.147 1756.06 676.244L1752 705H1776L1767.74 666.49Z" fill="#915B3C"/>
<path fill-rule="evenodd" clip-rule="evenodd" d="M1769.58 671.308C1772.59 657.906 1781.18 648.771 1779.86 642.782C1778.99 638.789 1776.66 636.305 1772.88 635.332C1770.92 627.416 1764.61 624.048 1753.94 625.23C1737.95 627.004 1728.18 633.648 1732.4 648.268C1736.27 648.268 1740.95 646.866 1747.42 649.268C1749.48 650.03 1750.95 652.393 1751.83 656.358H1754.75C1757.59 651.653 1760.39 649.924 1763.15 651.171C1765.91 652.418 1766.53 655.447 1765.03 660.259L1766.47 671.308H1769.58Z" fill="#191847"/>
<path fill-rule="evenodd" clip-rule="evenodd" d="M1843 830H1728C1719.16 830 1712 837.163 1712 846V938C1712 946.837 1719.16 954 1728 954H1843C1851.84 954 1859 946.837 1859 938V846C1859 837.163 1851.84 830 1843 830ZM1827 858C1829.21 858 1831 859.791 1831 862V922C1831 924.209 1829.21 926 1827 926H1744C1741.79 926 1740 924.209 1740 922V862C1740 859.791 1741.79 858 1744 858H1827Z" fill="#DBB1C5"/>
<path fill-rule="evenodd" clip-rule="evenodd" d="M1612.84 949C1632.56 924.924 1645.9 907.075 1652.86 895.454C1664.79 875.555 1674.55 857.848 1677.63 851.084C1684.97 834.955 1660.72 827.403 1655.23 834.926C1646.92 846.312 1629.18 882.143 1602 942.417L1612.84 949Z" fill="#B28B67"/>
<path fill-rule="evenodd" clip-rule="evenodd" d="M1653.24 942L1689.93 849.637C1697.78 832.8 1659.88 821.732 1654.12 829.568C1641.02 847.357 1609.9 917.534 1606 922.834L1653.24 942Z" fill="#3F5C77"/>
<path fill-rule="evenodd" clip-rule="evenodd" d="M1750.97 923.477C1743.82 913.051 1717.82 877.974 1703.66 863.461C1699.59 859.291 1695.62 855.288 1691.87 851.557C1680.7 840.47 1658.48 859.106 1669.62 869.205C1697.36 894.355 1737.85 928.307 1741.23 931.334C1745.97 935.577 1755.46 930.029 1750.97 923.477Z" fill="#915B3C"/>
<path fill-rule="evenodd" clip-rule="evenodd" d="M1749.3 918.767C1751.76 920.794 1753.36 922.45 1754.1 923.734C1755 925.296 1756.06 927.725 1757.27 931.021C1755.46 932.067 1739.17 941.467 1708.42 959.222C1704.73 955.759 1704.15 953.07 1706.7 951.157C1709.24 949.243 1711.34 947.629 1712.99 946.315L1729.85 923.087C1730.17 922.64 1730.8 922.54 1731.24 922.865C1731.25 922.87 1731.26 922.876 1731.27 922.882L1734.77 925.579C1737.98 925.299 1740.38 924.702 1741.97 923.788C1743.25 923.045 1744.73 921.501 1746.39 919.154L1746.39 919.154C1747.03 918.253 1748.28 918.041 1749.18 918.681C1749.22 918.708 1749.26 918.737 1749.3 918.767Z" fill="#E1D4D9"/>
<path fill-rule="evenodd" clip-rule="evenodd" d="M1621.32 945.402C1622.44 948.388 1623 950.623 1623 952.106C1623 953.909 1622.7 956.54 1622.1 960C1620.01 960 1601.21 960 1565.7 960C1564.23 955.155 1565.08 952.539 1568.24 952.152C1571.39 951.766 1574.02 951.417 1576.1 951.106L1602.32 939.419C1602.82 939.194 1603.42 939.421 1603.64 939.925C1603.64 939.934 1603.65 939.942 1603.65 939.951L1605.34 944.039C1608.26 945.403 1610.64 946.085 1612.46 946.085C1613.95 946.085 1616 945.485 1618.62 944.285L1618.62 944.285C1619.62 943.825 1620.81 944.266 1621.27 945.27C1621.29 945.313 1621.31 945.357 1621.32 945.402Z" fill="#E1D4D9"/>
<path fill-rule="evenodd" clip-rule="evenodd" d="M1703.14 854.25C1733.63 849.282 1754.06 845.884 1764.42 844.058C1793.94 838.852 1802.55 822.965 1797.46 788.302H1743.07C1735.87 790.381 1705.79 803.237 1652.83 826.872C1643.3 831.602 1645.08 845.548 1646.82 850.142C1646.89 850.329 1662.95 877.853 1695.01 932.713L1739.51 904.365L1703.05 857.59C1702.09 855.651 1702.12 854.538 1703.14 854.25Z" fill="#638CB3"/>
<path fill-rule="evenodd" clip-rule="evenodd" d="M1699.22 775.211L1667.32 798.635C1658.67 800.97 1651.44 803.874 1645.64 807.349C1644.27 808.598 1642.61 811.128 1648.29 810.691C1653.98 810.254 1659.98 810.049 1660.77 811.989C1661.55 813.929 1658.11 816.248 1659.7 818.865C1660.75 820.61 1665.75 816.235 1674.68 805.741L1706.27 792.642L1699.22 775.211ZM1821.69 776.02L1800.79 776.102C1813.7 817.756 1820.66 839.857 1821.69 842.406C1824.01 848.14 1819.11 856.874 1817.02 861.567C1823.84 864.619 1823.11 853.317 1831.71 857.319C1839.56 860.973 1845.54 867.592 1854.61 861.994C1855.73 861.306 1856.95 858.715 1854 856.69C1846.64 851.645 1836.03 842.815 1834.6 839.908C1832.65 835.945 1828.35 814.649 1821.69 776.02Z" fill="#915B3C"/>
<path fill-rule="evenodd" clip-rule="evenodd" d="M1762.31 688.332L1753.66 686.849C1721.57 714.564 1708.4 767.809 1669.07 796.015L1678.54 807.748C1746.76 799.3 1763.67 734.355 1762.31 688.332Z" fill="#B41528"/>
<path fill-rule="evenodd" clip-rule="evenodd" d="M1800 797C1765.33 797 1739.82 797 1723.49 797C1719.99 797 1720.65 791.952 1721.16 789.404C1726.99 760.004 1749.76 728.312 1749.76 686.461L1771.83 683C1790.08 712.358 1796.4 748.505 1800 797Z" fill="#ADADAD"/>
<path fill-rule="evenodd" clip-rule="evenodd" d="M1799.39 711.858C1802.59 710.937 1805.13 708.788 1807 705.411C1815.07 690.856 1812.15 682.842 1803.53 680.208C1794.91 677.574 1787.22 683 1773.49 683C1772.74 683 1772.06 683.047 1771.44 683.14L1764.53 683.535C1744.71 750.715 1739.24 795.537 1748.13 818H1808.35C1811.92 826.32 1815.33 833.32 1818.59 839H1835C1836.54 789.067 1824.67 746.686 1799.39 711.858Z" fill="#D61930"/>
<path fill-rule="evenodd" clip-rule="evenodd" d="M1795.23 783.498C1793.34 799.344 1790.26 810.845 1786 818H1808.35C1804.19 808.295 1799.82 796.794 1795.23 783.498Z" fill="black" fill-opacity="0.1"/>
<rect x="102" y="73" width="71" height="51" rx="25.5" fill="#D95B5B"/>
<path d="M89.746 91.392C89.746 92.304 89.556 93.1907 89.176 94.052C88.8213 94.888 88.34 95.724 87.732 96.56C87.124 97.3707 86.44 98.1813 85.68 98.992C84.92 99.7773 84.16 100.55 83.4 101.31C82.9693 101.741 82.4627 102.247 81.88 102.83C81.3227 103.413 80.7907 104.021 80.284 104.654C79.7773 105.287 79.3467 105.895 78.992 106.478C78.6627 107.061 78.498 107.567 78.498 107.998H90.62V111H74.66C74.6347 110.848 74.622 110.696 74.622 110.544C74.622 110.392 74.622 110.253 74.622 110.126C74.622 108.935 74.812 107.833 75.192 106.82C75.5973 105.781 76.1167 104.806 76.75 103.894C77.3833 102.982 78.0927 102.121 78.878 101.31C79.6633 100.499 80.436 99.714 81.196 98.954C81.8293 98.346 82.4247 97.7507 82.982 97.168C83.5647 96.56 84.0713 95.9647 84.502 95.382C84.958 94.774 85.3127 94.1533 85.566 93.52C85.8447 92.8867 85.984 92.2153 85.984 91.506C85.984 90.746 85.8573 90.1 85.604 89.568C85.376 89.036 85.0593 88.5927 84.654 88.238C84.2487 87.8833 83.7673 87.63 83.21 87.478C82.678 87.3007 82.108 87.212 81.5 87.212C80.7653 87.212 80.094 87.3133 79.486 87.516C78.878 87.7187 78.3333 87.9593 77.852 88.238C77.3707 88.4913 76.9653 88.77 76.636 89.074C76.3067 89.3527 76.0533 89.568 75.876 89.72L74.128 87.212C74.356 86.9587 74.698 86.6547 75.154 86.3C75.61 85.92 76.1547 85.5653 76.788 85.236C77.4213 84.9067 78.1307 84.628 78.916 84.4C79.7013 84.172 80.55 84.058 81.462 84.058C84.2233 84.058 86.288 84.704 87.656 85.996C89.0493 87.2627 89.746 89.0613 89.746 91.392Z" fill="#D95B5B"/>
<path d="M135.929 97.814C135.929 100.094 135.574 102.083 134.865 103.78C134.156 105.452 133.155 106.845 131.863 107.96C130.571 109.049 129.026 109.873 127.227 110.43C125.428 110.962 123.452 111.228 121.299 111.228C120.235 111.228 119.057 111.177 117.765 111.076C116.498 111 115.346 110.835 114.307 110.582V85.046C115.346 84.7927 116.498 84.628 117.765 84.552C119.057 84.4507 120.235 84.4 121.299 84.4C123.452 84.4 125.428 84.6787 127.227 85.236C129.026 85.768 130.571 86.5913 131.863 87.706C133.155 88.7953 134.156 90.1887 134.865 91.886C135.574 93.558 135.929 95.534 135.929 97.814ZM121.603 107.998C125.099 107.998 127.708 107.111 129.431 105.338C131.154 103.539 132.015 101.031 132.015 97.814C132.015 94.5967 131.154 92.1013 129.431 90.328C127.708 88.5293 125.099 87.63 121.603 87.63C120.564 87.63 119.754 87.6427 119.171 87.668C118.614 87.6933 118.221 87.7187 117.993 87.744V107.884C118.221 107.909 118.614 107.935 119.171 107.96C119.754 107.985 120.564 107.998 121.603 107.998ZM158.611 101.12C158.611 102.691 158.383 104.109 157.927 105.376C157.471 106.643 156.825 107.732 155.989 108.644C155.178 109.556 154.203 110.265 153.063 110.772C151.923 111.253 150.682 111.494 149.339 111.494C147.996 111.494 146.755 111.253 145.615 110.772C144.475 110.265 143.487 109.556 142.651 108.644C141.84 107.732 141.207 106.643 140.751 105.376C140.295 104.109 140.067 102.691 140.067 101.12C140.067 99.5747 140.295 98.1687 140.751 96.902C141.207 95.61 141.84 94.508 142.651 93.596C143.487 92.684 144.475 91.9873 145.615 91.506C146.755 90.9993 147.996 90.746 149.339 90.746C150.682 90.746 151.923 90.9993 153.063 91.506C154.203 91.9873 155.178 92.684 155.989 93.596C156.825 94.508 157.471 95.61 157.927 96.902C158.383 98.1687 158.611 99.5747 158.611 101.12ZM154.925 101.12C154.925 98.8907 154.418 97.13 153.405 95.838C152.417 94.5207 151.062 93.862 149.339 93.862C147.616 93.862 146.248 94.5207 145.235 95.838C144.247 97.13 143.753 98.8907 143.753 101.12C143.753 103.349 144.247 105.123 145.235 106.44C146.248 107.732 147.616 108.378 149.339 108.378C151.062 108.378 152.417 107.732 153.405 106.44C154.418 105.123 154.925 103.349 154.925 101.12Z" fill="white"/>
</svg>
